<mxfile host="app.diagrams.net" modified="2023-02-02T09:24:56.887Z" agent="5.0 (Windows NT 10.0; Win64; x64) AppleWebKit/537.36 (KHTML, like Gecko) Chrome/109.0.0.0 Safari/537.36" etag="rjK4kBXH_Eho2NyKT8j_" version="20.8.15" type="github">
  <diagram name="Page-1" id="TLYX_0VIToO-dnsux8Qr">
    <mxGraphModel dx="780" dy="412" grid="0" gridSize="10" guides="1" tooltips="1" connect="1" arrows="1" fold="1" page="1" pageScale="1" pageWidth="850" pageHeight="1100" math="0" shadow="0">
      <root>
        <mxCell id="0" />
        <mxCell id="1" parent="0" />
        <mxCell id="d6RYAAp3YK9pHTLxNF8k-2" value="" style="endArrow=none;dashed=1;html=1;dashPattern=1 3;strokeWidth=2;rounded=0;" edge="1" parent="1">
          <mxGeometry width="50" height="50" relative="1" as="geometry">
            <mxPoint x="120" y="240" as="sourcePoint" />
            <mxPoint x="640" y="240" as="targetPoint" />
          </mxGeometry>
        </mxCell>
        <mxCell id="d6RYAAp3YK9pHTLxNF8k-3" value="" style="endArrow=none;dashed=1;html=1;dashPattern=1 3;strokeWidth=2;rounded=0;" edge="1" parent="1">
          <mxGeometry width="50" height="50" relative="1" as="geometry">
            <mxPoint x="120" y="360" as="sourcePoint" />
            <mxPoint x="640" y="360" as="targetPoint" />
          </mxGeometry>
        </mxCell>
        <mxCell id="d6RYAAp3YK9pHTLxNF8k-4" value="Issue &amp;amp; Risk Management" style="text;html=1;strokeColor=none;fillColor=none;align=center;verticalAlign=middle;whiteSpace=wrap;rounded=0;" vertex="1" parent="1">
          <mxGeometry x="120" y="385" width="160" height="30" as="geometry" />
        </mxCell>
        <mxCell id="d6RYAAp3YK9pHTLxNF8k-9" value="Backlogs" style="text;html=1;strokeColor=none;fillColor=none;align=center;verticalAlign=middle;whiteSpace=wrap;rounded=0;" vertex="1" parent="1">
          <mxGeometry x="120" y="285" width="160" height="30" as="geometry" />
        </mxCell>
        <mxCell id="d6RYAAp3YK9pHTLxNF8k-10" value="PI Backlogs" style="text;html=1;strokeColor=none;fillColor=none;align=center;verticalAlign=middle;whiteSpace=wrap;rounded=0;" vertex="1" parent="1">
          <mxGeometry x="120" y="170" width="160" height="30" as="geometry" />
        </mxCell>
        <mxCell id="d6RYAAp3YK9pHTLxNF8k-11" value="" style="shape=curlyBracket;whiteSpace=wrap;html=1;rounded=1;flipH=1;labelPosition=right;verticalLabelPosition=middle;align=left;verticalAlign=middle;" vertex="1" parent="1">
          <mxGeometry x="660" y="135" width="20" height="100" as="geometry" />
        </mxCell>
        <mxCell id="d6RYAAp3YK9pHTLxNF8k-12" value="8 - 12 Weeks" style="text;html=1;strokeColor=none;fillColor=none;align=center;verticalAlign=middle;whiteSpace=wrap;rounded=0;" vertex="1" parent="1">
          <mxGeometry x="700" y="170" width="80" height="30" as="geometry" />
        </mxCell>
        <mxCell id="d6RYAAp3YK9pHTLxNF8k-13" value="" style="shape=curlyBracket;whiteSpace=wrap;html=1;rounded=1;flipH=1;labelPosition=right;verticalLabelPosition=middle;align=left;verticalAlign=middle;" vertex="1" parent="1">
          <mxGeometry x="660" y="250" width="20" height="100" as="geometry" />
        </mxCell>
        <mxCell id="d6RYAAp3YK9pHTLxNF8k-14" value="5 - 6 weeks" style="text;html=1;strokeColor=none;fillColor=none;align=center;verticalAlign=middle;whiteSpace=wrap;rounded=0;" vertex="1" parent="1">
          <mxGeometry x="700" y="280" width="80" height="30" as="geometry" />
        </mxCell>
        <mxCell id="d6RYAAp3YK9pHTLxNF8k-15" value="" style="shape=curlyBracket;whiteSpace=wrap;html=1;rounded=1;flipH=1;labelPosition=right;verticalLabelPosition=middle;align=left;verticalAlign=middle;" vertex="1" parent="1">
          <mxGeometry x="660" y="370" width="20" height="50" as="geometry" />
        </mxCell>
        <mxCell id="d6RYAAp3YK9pHTLxNF8k-16" value="2 - 3 weeks" style="text;html=1;strokeColor=none;fillColor=none;align=center;verticalAlign=middle;whiteSpace=wrap;rounded=0;" vertex="1" parent="1">
          <mxGeometry x="700" y="380" width="80" height="30" as="geometry" />
        </mxCell>
        <mxCell id="d6RYAAp3YK9pHTLxNF8k-17" value="Epic" style="rounded=1;whiteSpace=wrap;html=1;fillColor=#CCE5FF;" vertex="1" parent="1">
          <mxGeometry x="290" y="135" width="80" height="35" as="geometry" />
        </mxCell>
        <mxCell id="d6RYAAp3YK9pHTLxNF8k-18" value="Feature" style="rounded=1;whiteSpace=wrap;html=1;fillColor=#CCCCFF;" vertex="1" parent="1">
          <mxGeometry x="360" y="190" width="80" height="35" as="geometry" />
        </mxCell>
        <mxCell id="d6RYAAp3YK9pHTLxNF8k-21" value="" style="endArrow=none;html=1;rounded=0;entryX=0.5;entryY=1;entryDx=0;entryDy=0;" edge="1" parent="1" target="d6RYAAp3YK9pHTLxNF8k-17">
          <mxGeometry width="50" height="50" relative="1" as="geometry">
            <mxPoint x="330" y="210" as="sourcePoint" />
            <mxPoint x="490" y="150" as="targetPoint" />
          </mxGeometry>
        </mxCell>
        <mxCell id="d6RYAAp3YK9pHTLxNF8k-23" value="" style="endArrow=classic;html=1;rounded=0;" edge="1" parent="1" target="d6RYAAp3YK9pHTLxNF8k-18">
          <mxGeometry width="50" height="50" relative="1" as="geometry">
            <mxPoint x="330" y="210" as="sourcePoint" />
            <mxPoint x="490" y="150" as="targetPoint" />
          </mxGeometry>
        </mxCell>
        <mxCell id="d6RYAAp3YK9pHTLxNF8k-24" value="Requirements" style="rounded=1;whiteSpace=wrap;html=1;fillColor=#FFCC99;" vertex="1" parent="1">
          <mxGeometry x="422" y="256" width="80" height="35" as="geometry" />
        </mxCell>
        <mxCell id="d6RYAAp3YK9pHTLxNF8k-25" value="Tasks" style="rounded=1;whiteSpace=wrap;html=1;fillColor=#FFFF99;" vertex="1" parent="1">
          <mxGeometry x="492" y="311" width="80" height="35" as="geometry" />
        </mxCell>
        <mxCell id="d6RYAAp3YK9pHTLxNF8k-26" value="" style="endArrow=none;html=1;rounded=0;entryX=0.5;entryY=1;entryDx=0;entryDy=0;" edge="1" parent="1" target="d6RYAAp3YK9pHTLxNF8k-24">
          <mxGeometry width="50" height="50" relative="1" as="geometry">
            <mxPoint x="462" y="331" as="sourcePoint" />
            <mxPoint x="622" y="271" as="targetPoint" />
          </mxGeometry>
        </mxCell>
        <mxCell id="d6RYAAp3YK9pHTLxNF8k-27" value="" style="endArrow=classic;html=1;rounded=0;" edge="1" parent="1" target="d6RYAAp3YK9pHTLxNF8k-25">
          <mxGeometry width="50" height="50" relative="1" as="geometry">
            <mxPoint x="462" y="331" as="sourcePoint" />
            <mxPoint x="622" y="271" as="targetPoint" />
          </mxGeometry>
        </mxCell>
        <mxCell id="d6RYAAp3YK9pHTLxNF8k-29" value="&lt;span style=&quot;&quot;&gt;CR&lt;/span&gt;" style="rounded=1;whiteSpace=wrap;html=1;fillColor=#FFE599;" vertex="1" parent="1">
          <mxGeometry x="302" y="380" width="60" height="30" as="geometry" />
        </mxCell>
        <mxCell id="d6RYAAp3YK9pHTLxNF8k-30" value="Risk" style="rounded=1;whiteSpace=wrap;html=1;fillColor=#FFE599;" vertex="1" parent="1">
          <mxGeometry x="405" y="380" width="60" height="30" as="geometry" />
        </mxCell>
        <mxCell id="d6RYAAp3YK9pHTLxNF8k-31" value="Defect" style="rounded=1;whiteSpace=wrap;html=1;fillColor=#FFE599;" vertex="1" parent="1">
          <mxGeometry x="513" y="380" width="60" height="30" as="geometry" />
        </mxCell>
        <mxCell id="d6RYAAp3YK9pHTLxNF8k-32" value="" style="endArrow=none;html=1;rounded=0;fontSize=12;entryX=0.5;entryY=1;entryDx=0;entryDy=0;" edge="1" parent="1" target="d6RYAAp3YK9pHTLxNF8k-18">
          <mxGeometry width="50" height="50" relative="1" as="geometry">
            <mxPoint x="400" y="280" as="sourcePoint" />
            <mxPoint x="450" y="230" as="targetPoint" />
          </mxGeometry>
        </mxCell>
        <mxCell id="d6RYAAp3YK9pHTLxNF8k-33" value="" style="endArrow=classic;html=1;rounded=0;fontSize=12;entryX=-0.001;entryY=0.669;entryDx=0;entryDy=0;entryPerimeter=0;" edge="1" parent="1" target="d6RYAAp3YK9pHTLxNF8k-24">
          <mxGeometry width="50" height="50" relative="1" as="geometry">
            <mxPoint x="400" y="280" as="sourcePoint" />
            <mxPoint x="470" y="240" as="targetPoint" />
          </mxGeometry>
        </mxCell>
      </root>
    </mxGraphModel>
  </diagram>
</mxfile>
